<svg aria-hidden="true" style="position: absolute; width: 0; height: 0; overflow: hidden;" version="1.1" xmlns="http://www.w3.org/2000/svg" xmlns:xlink="http://www.w3.org/1999/xlink">
<defs>
<symbol id="icon-pencil" viewBox="0 0 32 32">
<path d="M12 20l4-2 14-14-2-2-14 14-2 4zM9.041 27.097c-0.989-2.085-2.052-3.149-4.137-4.137l3.097-8.525 4-2.435 12-12h-6l-12 12-6 20 20-6 12-12v-6l-12 12-2.435 4z"></path>
</symbol>
<symbol id="icon-phone" viewBox="0 0 32 32">
<path d="M22 20c-2 2-2 4-4 4s-4-2-6-4-4-4-4-6 2-2 4-4-4-8-6-8-6 6-6 6c0 4 4.109 12.109 8 16s12 8 16 8c0 0 6-4 6-6s-6-8-8-6z"></path>
</symbol>
<symbol id="icon-delete" viewBox="0 0 32 32">
<path d="M21 28c0.553 0 1-0.447 1-1v-14c0-0.553-0.447-1-1-1s-1 0.447-1 1v14c0 0.553 0.447 1 1 1zM11 28c0.552 0 1-0.447 1-1v-14c0-0.553-0.448-1-1-1s-1 0.447-1 1v14c0 0.553 0.448 1 1 1zM29 6h-4v-2c0-2.209-1.791-4-4-4h-10c-2.209 0-4 1.791-4 4v2h-4l-3 3c0 0.553 0.448 1 1 1h3v20c0 1.104 0.896 2 2 2h20c1.104 0 2-0.896 2-2v-20h3c0.553 0 1-0.447 1-1l-3-3zM10 4c0-1.104 0.896-2 2-2h8c1.104 0 2 0.896 2 2v2h-12v-2zM26 29c0 0.553-0.447 1-1 1h-18c-0.552 0-1-0.447-1-1v-19h20v19zM16 28c0.553 0 1-0.447 1-1v-14c0-0.553-0.447-1-1-1s-1 0.447-1 1v14c0 0.553 0.447 1 1 1z"></path>
</symbol>
</defs>
</svg>
